<svg width="3000" height="3000" viewBox="0 0 3000 3000" fill="none" xmlns="http://www.w3.org/2000/svg">
<g clip-path="url(#clip0_1_81)">
<rect width="3000" height="3000" fill="white"/>
<path d="M201.813 2810.14C195.835 2832.45 216.248 2852.86 238.555 2846.88L1486.36 2512.54C1508.66 2506.56 1516.14 2478.68 1499.81 2462.35L586.351 1548.89C570.021 1532.56 542.137 1540.03 536.16 1562.34L201.813 2810.14Z" fill="#6584FF" fill-opacity="0.73"/>
<path d="M2497.04 1470.62C2490.72 1492.84 2462.73 1499.88 2446.65 1483.31L1547.22 556.043C1531.14 539.466 1539.03 511.699 1561.43 506.063L2814.18 190.764C2836.57 185.127 2856.67 205.848 2850.36 228.061L2497.04 1470.62Z" fill="#6584FF" fill-opacity="0.73"/>
<path d="M199.203 217.236C193.226 194.929 213.639 174.517 235.946 180.494L1482.42 514.486C1504.73 520.464 1512.2 548.347 1495.87 564.677L583.387 1477.16C567.057 1493.49 539.173 1486.02 533.196 1463.71L199.203 217.236Z" fill="#19919A" fill-opacity="0.73"/>
<path d="M2831.53 2846.26C2853.83 2852.24 2874.25 2831.82 2868.27 2809.52L2534.28 1563.04C2528.3 1540.73 2500.42 1533.26 2484.09 1549.59L1571.6 2462.08C1555.27 2478.41 1562.74 2506.29 1585.05 2512.27L2831.53 2846.26Z" fill="#19919A" fill-opacity="0.73"/>
</g>
<defs>
<clipPath id="clip0_1_81">
<rect width="3000" height="3000" fill="white"/>
</clipPath>
</defs>
</svg>
